<svg width="1440" height="900" viewBox="0 0 1440 900" fill="none" xmlns="http://www.w3.org/2000/svg">
<g opacity="0.65">
<g opacity="0.65">
<path opacity="0.65" d="M-26.888 558.222C61.6981 513.331 138.591 449.463 208.364 379.405C243.29 344.321 276.649 307.703 309.46 270.643C325.646 252.363 342.297 234.332 357.706 215.382C371.123 198.91 382.696 179.76 382.666 157.848C382.645 139.958 374.538 121.875 357.731 114.05C343.947 107.62 327.099 109.94 314.02 116.996C280.09 135.284 278.763 177.064 297.351 207.267C318.164 241.067 357.22 256.03 394.89 261.227C436.071 266.92 477.925 263.555 519.302 266.376C610.446 272.608 704.557 300.869 765.722 372.629C780.302 389.72 792.434 408.831 801.175 429.545C810.901 452.657 815.828 477.338 819.145 502.099C825.563 550.222 826.33 599.531 843.649 645.511C858.893 686.005 887.898 719.723 929.726 733.51C967.756 746.041 1009.29 741.096 1042.82 719.109C1077.46 696.408 1099.38 658.703 1103.26 617.665C1107.32 574.522 1094.86 532.189 1090.53 489.575C1088.42 468.934 1087.95 446.939 1096.31 427.493C1104.12 409.297 1120.28 397.181 1140.6 399.73C1148.67 400.741 1157 404.168 1161.89 410.937C1166.65 417.514 1169.1 433.673 1157.52 434.695C1146.95 435.63 1140.47 423.614 1140.23 414.679C1139.97 404.717 1144.78 395.096 1151.18 387.706C1166.62 369.856 1191.93 364.192 1212.45 354.375C1229.16 346.369 1245.05 336.449 1259.54 324.919C1288.13 302.183 1312.56 272.1 1323.66 236.905C1328.91 220.329 1330.9 203.144 1329.7 185.8C1329.24 179.094 1318.93 180.694 1319.39 187.328C1321.98 224.512 1306.7 259.606 1283.13 287.687C1257.74 317.943 1224.39 338.632 1188.21 353.487C1168.38 361.606 1147.53 371.065 1136.52 390.522C1128.17 405.283 1126.22 425.693 1139.94 437.975C1152.94 449.612 1173.17 446.021 1176.08 427.191C1178.68 410.367 1165.92 395.911 1150.59 391.233C1135.16 386.519 1116.99 389.067 1104.28 399.354C1089.56 411.288 1082.51 430.308 1080.04 448.568C1074.4 490.384 1087.82 532.751 1092.16 574.07C1094.43 595.6 1094.7 617.782 1089.06 638.838C1083.57 659.423 1072.49 678.482 1057.51 693.617C1028.19 723.232 986.601 735.824 945.853 727.104C901.093 717.501 869.676 684.168 853.662 642.395C835.829 595.882 835.809 545.458 828.982 496.756C822.53 450.674 807.653 407.865 778.243 371.289C750.614 336.962 714.069 310.228 674.142 291.928C633.131 273.122 588.557 262.855 543.833 258.021C501.739 253.467 459.536 255.873 417.385 252.964C379.232 250.335 336.885 241.437 311.845 209.812C299.379 194.064 291.571 172.482 297.142 152.47C301.506 136.765 315.295 124.964 331.112 121.632C349.273 117.82 365.923 127.006 370.781 145.413C376.75 167.987 364.999 189.367 351.445 206.559C336.669 225.279 320.206 242.821 304.413 260.675C288.008 279.204 271.514 297.647 254.752 315.828C187.713 388.574 115.835 458.222 32.4635 512.147C11.9313 525.415 -9.28581 537.593 -31.0818 548.636C-37.0614 551.713 -32.8863 561.258 -26.888 558.222Z" fill="white"/>
</g>
</g>
</svg>
