<svg version="1.1" id="Layer_1" xmlns="http://www.w3.org/2000/svg" xmlns:xlink="http://www.w3.org/1999/xlink" x="0px" y="0px"
     width="500px" height="1000px" viewBox="0 0 340 333" enable-background="new 0 0 340 333" xml:space="preserve">

<path class="path" fill="#FFFFFF" stroke="#000000" stroke-width="4" stroke-miterlimit="10" d="M1.4,223.46C27.63,247.88,65,255.57,99.81,251.74c42.12-4.63,80.55-24,118.73-41,79.18-35.33,162.12-67.61,249.15-75.71a423.75,423.75,0,0,1,64.22-1.22c19,1.12,38.23,3.61,56.18,10.33,16.82,6.29,32.6,17,41.47,32.91,7.63,13.72,10.63,30.94,5.25,46-12.73,35.62-79.32,41.66-90.14,1.42-4.88-18.15,9-32.12,24.57-38.52,16-6.57,34.66-7.3,51.58-4.4,35,6,71.62,29.7,83.23,64.77,6,18.09,1.8,36.11-11.88,49.34-12,11.61-28.26,18.39-44.38,21.93-35.95,7.91-75.37,2.88-107.51-15.33a124.45,124.45,0,0,1-60.63-83C472,182,484.53,146.48,509.76,118.92,536.17,90.06,572.7,67.18,610.52,57c85-22.75,162.08,32.2,228,78.14,62.17,43.3,135.81,88.35,215,69.25,33.31-8,61.1-28.86,80.07-57.12,18.65-27.77,28.75-60.59,35.79-93,3.5-16.11,6.23-32.37,8.75-48.66.88-5.67-7.8-8.11-8.68-2.39-10.46,67.69-26.11,152.33-95.19,184.54-36.72,17.12-80,14.06-117.74,2.2-41.84-13.14-78.66-38.34-114.3-63.18-69-48.11-149.56-103.31-238-77.36-38.82,11.39-76.65,35.38-103.32,65.86-25.18,28.77-37.27,64.82-30.57,102.83,6.37,36.15,28.36,68.39,59.22,88.08,32.33,20.63,72.31,27.48,110,21.91,31.91-4.72,71-22.27,75.9-58.27,5.22-38.49-29.78-73.17-62.06-87.72-30.71-13.84-73.74-18-102.1,3.66-13.46,10.28-20.17,26.92-14.54,43.39,6.06,17.75,22.35,28.85,40.53,31.24,19.09,2.51,41.1-3.1,55-17,11.42-11.41,15.68-28,13.87-43.75-4.42-38.48-37.12-61-72.43-69.4-41.82-9.91-87.27-7.52-129.47-1.6-45.27,6.35-89.5,18.83-132.46,34.26-43.35,15.57-85.2,34.54-127.27,53.18-39.52,17.51-82.83,33.58-126.68,25.21-18.58-3.55-36.09-11.34-50-24.3-4.23-3.94-10.61,2.41-6.36,6.36Z"/></g></g></svg>
